# This file uses centimeters as units for non-parametric coordinates.

mtllib Cubo bombas.mtl
g default
v -2.689500 5.393178 3.586000
v -3.586000 5.393178 2.689500
v -0.896679 7.186000 1.793179
v -1.793179 7.186000 0.896679
v -0.896679 7.186001 -1.793179
v -1.793179 7.186000 -0.896679
v -3.586000 5.393178 -2.689500
v -2.689500 5.393178 -3.586000
v 1.793179 7.186000 0.896679
v 0.896679 7.186001 1.793179
v 3.586000 5.393178 2.689500
v 2.689500 5.393178 3.586000
v 0.896679 7.186000 -1.793179
v 1.793179 7.186000 -0.896679
v 2.689500 5.393178 -3.586000
v 3.586000 5.393178 -2.689500
v 2.689500 0.014000 3.586000
v 3.586000 0.014000 2.689500
v 3.586000 2.273255 2.689500
v 2.689500 2.273255 3.586000
v -2.689500 3.779425 3.586000
v -3.586000 3.779425 2.689500
v 2.689500 3.779425 -3.586000
v 3.586000 3.779425 -2.689500
v -2.689500 0.014000 -3.586000
v -3.586000 0.014000 -2.689500
v -2.689500 2.273255 -3.586000
v -3.586000 2.273255 -2.689500
v 3.586000 3.779425 2.689500
v 2.689500 3.779425 3.586000
v -3.586000 2.273255 2.689500
v -2.689500 2.273255 3.586000
v -3.586000 3.779425 -2.689500
v -2.689500 3.779425 -3.586000
v 3.586000 2.273255 -2.689500
v 2.689500 2.273255 -3.586000
v 3.586000 0.014000 -2.689500
v 2.689500 0.014000 -3.586000
v -3.586000 0.014000 2.689500
v -2.689500 0.014000 3.586000
v 3.121029 2.370902 2.340772
v 2.340772 2.370902 3.121029
v 3.121029 3.681777 2.340772
v 2.340772 3.681777 3.121029
v -3.121029 3.681777 2.340772
v -2.340772 3.681777 3.121029
v -3.121029 2.370902 2.340772
v -2.340772 2.370902 3.121029
v 3.121029 3.681777 -2.340772
v 2.340772 3.681777 -3.121029
v 3.121029 2.370902 -2.340772
v 2.340772 2.370902 -3.121029
v -3.121029 2.370902 -2.340772
v -2.340772 2.370902 -3.121029
v -3.121029 3.681777 -2.340772
v -2.340772 3.681777 -3.121029
vt 0.337512 0.919471
vt 0.337512 0.704481
vt 0.397711 0.704481
vt 0.397711 0.919471
vt 0.397711 0.668649
vt 0.337512 0.668649
vt 0.337512 0.955302
vt 0.397711 0.955302
vt 0.405354 0.919471
vt 0.405354 0.704481
vt 0.465554 0.704481
vt 0.465554 0.919471
vt 0.465554 0.668649
vt 0.405354 0.668649
vt 0.405354 0.955302
vt 0.465554 0.955302
vt 0.674787 0.290181
vt 0.674787 0.043162
vt 0.748895 0.043162
vt 0.748895 0.290181
vt 0.748895 0.001992
vt 0.674787 0.001992
vt 0.831227 0.125493
vt 0.831227 0.207849
vt 0.748895 0.331351
vt 0.674787 0.331351
vt 0.836146 0.290181
vt 0.836146 0.043162
vt 0.910254 0.043162
vt 0.910254 0.290181
vt 0.910254 0.001992
vt 0.836146 0.001992
vt 0.992585 0.207850
vt 0.992585 0.125493
vt 0.910254 0.331351
vt 0.836146 0.331351
vt 0.830044 0.623510
vt 0.726292 0.623510
vt 0.726292 0.376490
vt 0.830044 0.376490
vt 0.726292 0.664679
vt 0.830044 0.664679
vt 0.830044 0.335321
vt 0.726292 0.335321
vt 0.720190 0.623510
vt 0.616439 0.623510
vt 0.616439 0.376490
vt 0.720190 0.376490
vt 0.616439 0.664679
vt 0.720190 0.664679
vt 0.720190 0.335321
vt 0.616439 0.335321
vt 0.084313 0.125493
vt 0.125483 0.084323
vt 0.207839 0.084323
vt 0.249009 0.125493
vt 0.249009 0.207850
vt 0.207839 0.249019
vt 0.125483 0.249019
vt 0.084313 0.207850
vt 0.001981 0.043162
vt 0.043151 0.001992
vt 0.290170 0.001992
vt 0.331340 0.043162
vt 0.331340 0.290181
vt 0.290170 0.331351
vt 0.043151 0.331351
vt 0.001981 0.290181
vt 0.337512 0.043162
vt 0.378682 0.001992
vt 0.625701 0.001992
vt 0.666871 0.043162
vt 0.666871 0.290181
vt 0.625701 0.331351
vt 0.378682 0.331351
vt 0.337512 0.290181
vt 0.569167 0.335321
vt 0.610337 0.376490
vt 0.588984 0.392505
vt 0.553152 0.356673
vt 0.610337 0.623510
vt 0.588984 0.607495
vt 0.322148 0.335321
vt 0.338162 0.356673
vt 0.569167 0.664679
vt 0.553152 0.643327
vt 0.280978 0.376490
vt 0.302331 0.392505
vt 0.322148 0.664679
vt 0.338162 0.643327
vt 0.280978 0.623510
vt 0.302331 0.607495
vt 0.331340 0.956838
vt 0.290170 0.998008
vt 0.274156 0.976655
vt 0.309987 0.940824
vt 0.043151 0.998008
vt 0.059166 0.976655
vt 0.331340 0.709819
vt 0.309987 0.725834
vt 0.001981 0.956838
vt 0.023334 0.940824
vt 0.290170 0.668649
vt 0.274156 0.690002
vt 0.001981 0.709819
vt 0.023334 0.725834
vt 0.043151 0.668649
vt 0.059166 0.690002
vt 0.856993 0.550311
vt 0.856993 0.335321
vt 0.917192 0.335321
vt 0.917192 0.550311
vt 0.924836 0.550311
vt 0.924836 0.335321
vt 0.985035 0.335321
vt 0.985035 0.550311
vt 0.473197 0.915668
vt 0.473197 0.668649
vt 0.547305 0.668649
vt 0.547305 0.915668
vt 0.554608 0.915668
vt 0.554608 0.668649
vt 0.628717 0.668649
vt 0.628717 0.915668
vt 0.636020 0.915668
vt 0.636020 0.668649
vt 0.739771 0.668649
vt 0.739771 0.915668
vt 0.850258 0.915668
vt 0.746506 0.915668
vt 0.746506 0.668649
vt 0.850258 0.668649
vn 0.000000 1.000000 -0.000000
vn 0.000000 1.000000 -0.000000
vn 0.000000 1.000000 -0.000000
vn 0.000000 1.000000 -0.000000
vn 0.000000 1.000000 -0.000000
vn 0.000000 1.000000 -0.000000
vn 0.000000 1.000000 -0.000000
vn 0.000000 1.000000 -0.000000
vn 0.000000 -1.000000 -0.000000
vn 0.000000 -1.000000 -0.000000
vn 0.000000 -1.000000 -0.000000
vn 0.000000 -1.000000 -0.000000
vn 0.000000 -1.000000 -0.000000
vn 0.000000 -1.000000 -0.000000
vn 0.000000 -1.000000 -0.000000
vn 0.000000 -1.000000 -0.000000
vn -0.707107 0.000000 0.707107
vn -0.707107 0.000000 0.707107
vn -0.707107 0.000000 0.707107
vn -0.707107 0.000000 0.707107
vn -0.408249 0.816496 0.408248
vn -0.408249 0.816496 0.408248
vn -0.408249 0.816496 0.408248
vn -0.408249 0.816496 0.408248
vn -0.408249 0.816496 -0.408248
vn -0.408249 0.816496 -0.408248
vn -0.408249 0.816496 -0.408248
vn -0.408249 0.816496 -0.408248
vn -0.707107 0.000000 -0.707107
vn -0.707107 0.000000 -0.707107
vn -0.707107 0.000000 -0.707107
vn -0.707107 0.000000 -0.707107
vn 0.408249 0.816496 0.408248
vn 0.408249 0.816496 0.408248
vn 0.408249 0.816496 0.408248
vn 0.408249 0.816496 0.408248
vn 0.707107 0.000000 0.707107
vn 0.707107 0.000000 0.707107
vn 0.707107 0.000000 0.707107
vn 0.707107 0.000000 0.707107
vn 0.408249 0.816496 -0.408248
vn 0.408249 0.816496 -0.408248
vn 0.408249 0.816496 -0.408248
vn 0.408249 0.816496 -0.408248
vn 0.707107 0.000000 -0.707107
vn 0.707107 0.000000 -0.707107
vn 0.707107 0.000000 -0.707107
vn 0.707107 0.000000 -0.707107
vn 0.707107 0.000000 0.707107
vn 0.707107 0.000000 0.707107
vn 0.707107 0.000000 0.707107
vn 0.707107 0.000000 0.707107
vn 0.707107 0.000000 0.707107
vn 0.707107 0.000000 0.707107
vn 0.707107 0.000000 0.707107
vn 0.707107 0.000000 0.707107
vn -0.707107 0.000000 0.707107
vn -0.707107 0.000000 0.707107
vn -0.707107 0.000000 0.707107
vn -0.707107 0.000000 0.707107
vn 0.707107 0.000000 -0.707107
vn 0.707107 0.000000 -0.707107
vn 0.707107 0.000000 -0.707107
vn 0.707107 0.000000 -0.707107
vn -0.707107 0.000000 -0.707107
vn -0.707107 0.000000 -0.707107
vn -0.707107 0.000000 -0.707107
vn -0.707107 0.000000 -0.707107
vn -0.707107 0.000000 -0.707107
vn -0.707107 0.000000 -0.707107
vn -0.707107 0.000000 -0.707107
vn -0.707107 0.000000 -0.707107
vn -0.707107 0.000000 0.707107
vn -0.707107 0.000000 0.707107
vn -0.707107 0.000000 0.707107
vn -0.707107 0.000000 0.707107
vn 0.707107 0.000000 -0.707107
vn 0.707107 0.000000 -0.707107
vn 0.707107 0.000000 -0.707107
vn 0.707107 0.000000 -0.707107
vn -0.707107 0.707106 0.000000
vn -0.707107 0.707106 0.000000
vn -0.707107 0.707106 0.000000
vn -0.707107 0.707106 0.000000
vn -0.000000 0.707106 0.707107
vn -0.000000 0.707106 0.707107
vn -0.000000 0.707106 0.707107
vn -0.000000 0.707106 0.707107
vn 0.707107 0.707106 0.000000
vn 0.707107 0.707106 0.000000
vn 0.707107 0.707106 0.000000
vn 0.707107 0.707106 0.000000
vn 0.000000 0.707106 -0.707107
vn 0.000000 0.707106 -0.707107
vn 0.000000 0.707106 -0.707107
vn 0.000000 0.707106 -0.707107
vn 0.000000 0.000000 1.000000
vn 0.000000 0.000000 1.000000
vn 0.000000 0.000000 1.000000
vn 0.000000 0.000000 1.000000
vn 0.000000 0.000000 -1.000000
vn 0.000000 0.000000 -1.000000
vn 0.000000 0.000000 -1.000000
vn 0.000000 0.000000 -1.000000
vn 1.000000 0.000000 0.000000
vn 1.000000 0.000000 0.000000
vn 1.000000 0.000000 0.000000
vn 1.000000 0.000000 0.000000
vn -1.000000 0.000000 0.000000
vn -1.000000 0.000000 0.000000
vn -1.000000 0.000000 0.000000
vn -1.000000 0.000000 0.000000
vn 0.000000 0.000000 1.000000
vn 0.000000 0.000000 1.000000
vn 0.000000 0.000000 1.000000
vn 0.000000 0.000000 1.000000
vn -1.000000 0.000000 0.000000
vn -1.000000 0.000000 0.000000
vn -1.000000 0.000000 0.000000
vn -1.000000 0.000000 0.000000
vn 0.000000 0.000000 -1.000000
vn 0.000000 0.000000 -1.000000
vn 0.000000 0.000000 -1.000000
vn 0.000000 0.000000 -1.000000
vn 1.000000 0.000000 0.000000
vn 1.000000 0.000000 0.000000
vn 1.000000 0.000000 0.000000
vn 1.000000 0.000000 0.000000
vn 1.000000 0.000000 0.000000
vn 1.000000 0.000000 0.000000
vn 1.000000 0.000000 0.000000
vn 1.000000 0.000000 0.000000
vn 0.000000 0.000000 -1.000000
vn 0.000000 0.000000 -1.000000
vn 0.000000 0.000000 -1.000000
vn 0.000000 0.000000 -1.000000
vn -1.000000 0.000000 0.000000
vn -1.000000 0.000000 0.000000
vn -1.000000 0.000000 0.000000
vn -1.000000 0.000000 0.000000
vn 0.000000 0.000000 1.000000
vn 0.000000 0.000000 1.000000
vn 0.000000 0.000000 1.000000
vn 0.000000 0.000000 1.000000
vn 0.118312 0.985903 0.118312
vn 0.118312 0.985903 0.118312
vn 0.118312 0.985903 0.118312
vn 0.118312 0.985903 0.118312
vn 0.118312 -0.985903 0.118312
vn 0.118312 -0.985903 0.118312
vn 0.118312 -0.985903 0.118312
vn 0.118312 -0.985903 0.118312
vn -0.118312 -0.985903 0.118312
vn -0.118312 -0.985903 0.118312
vn -0.118312 -0.985903 0.118312
vn -0.118312 -0.985903 0.118312
vn -0.118312 0.985903 0.118312
vn -0.118312 0.985903 0.118312
vn -0.118312 0.985903 0.118312
vn -0.118312 0.985903 0.118312
vn 0.118312 -0.985903 -0.118312
vn 0.118312 -0.985903 -0.118312
vn 0.118312 -0.985903 -0.118312
vn 0.118312 -0.985903 -0.118312
vn 0.118312 0.985903 -0.118312
vn 0.118312 0.985903 -0.118312
vn 0.118312 0.985903 -0.118312
vn 0.118312 0.985903 -0.118312
vn -0.118312 0.985903 -0.118312
vn -0.118312 0.985903 -0.118312
vn -0.118312 0.985903 -0.118312
vn -0.118312 0.985903 -0.118312
vn -0.118312 -0.985903 -0.118312
vn -0.118312 -0.985903 -0.118312
vn -0.118312 -0.985903 -0.118312
vn -0.118312 -0.985903 -0.118312
vn 0.000000 0.978652 0.205523
vn 0.000000 0.978652 0.205523
vn 0.000000 0.978652 0.205523
vn 0.000000 0.978652 0.205523
vn 0.000000 -0.978652 0.205524
vn 0.000000 -0.978652 0.205524
vn 0.000000 -0.978652 0.205524
vn 0.000000 -0.978652 0.205524
vn 0.000000 -0.978652 -0.205524
vn 0.000000 -0.978652 -0.205524
vn 0.000000 -0.978652 -0.205524
vn 0.000000 -0.978652 -0.205524
vn 0.000000 0.978652 -0.205523
vn 0.000000 0.978652 -0.205523
vn 0.000000 0.978652 -0.205523
vn 0.000000 0.978652 -0.205523
vn 0.205523 0.978652 0.000000
vn 0.205523 0.978652 0.000000
vn 0.205523 0.978652 0.000000
vn 0.205523 0.978652 0.000000
vn 0.205524 -0.978652 0.000000
vn 0.205524 -0.978652 0.000000
vn 0.205524 -0.978652 0.000000
vn 0.205524 -0.978652 0.000000
vn -0.205523 0.978652 0.000000
vn -0.205523 0.978652 0.000000
vn -0.205523 0.978652 0.000000
vn -0.205523 0.978652 0.000000
vn -0.205524 -0.978652 0.000000
vn -0.205524 -0.978652 0.000000
vn -0.205524 -0.978652 0.000000
vn -0.205524 -0.978652 0.000000
s off
g Cubo_bombas
usemtl blinn2SG
f 4/53/1 3/54/2 10/55/3 9/56/4 14/57/5 13/58/6 5/59/7 6/60/8
f 26/69/9 25/70/10 38/71/11 37/72/12 18/73/13 17/74/14 40/75/15 39/76/16
f 1/21/17 2/19/18 22/18/19 21/22/20
f 2/61/21 1/62/22 3/54/23 4/53/24
f 6/60/25 5/59/26 8/67/27 7/68/28
f 7/20/29 8/25/30 34/26/31 33/17/32
f 9/56/33 10/55/34 12/63/35 11/64/36
f 11/30/37 12/35/38 30/36/39 29/27/40
f 13/58/41 14/57/42 16/65/43 15/66/44
f 15/31/45 16/29/46 24/28/47 23/32/48
f 17/41/49 18/38/50 19/37/51 20/42/52
f 42/7/53 41/1/54 43/4/55 44/8/56
f 46/13/57 45/11/58 47/10/59 48/14/60
f 50/5/61 49/3/62 51/2/63 52/6/64
f 25/49/65 26/46/66 28/45/67 27/50/68
f 54/15/69 53/9/70 55/12/71 56/16/72
f 32/51/73 31/48/74 39/47/75 40/52/76
f 36/43/77 35/40/78 37/39/79 38/44/80
f 2/19/81 4/23/82 6/24/83 7/20/84
f 3/54/85 1/62/86 12/63/87 10/55/88
f 9/33/89 11/30/90 16/29/91 14/34/92
f 8/67/93 5/59/94 13/58/95 15/66/96
f 48/109/97 42/110/98 44/111/99 46/112/100
f 56/113/101 50/114/102 52/115/103 54/116/104
f 41/1/105 51/2/106 49/3/107 43/4/108
f 53/9/109 47/10/110 45/11/111 55/12/112
f 21/117/113 30/118/114 12/119/115 1/120/116
f 33/17/117 22/18/118 2/19/119 7/20/120
f 8/121/121 15/122/122 23/123/123 34/124/124
f 29/27/125 24/28/126 16/29/127 11/30/128
f 19/37/129 18/38/130 37/39/131 35/40/132
f 27/125/133 36/126/134 38/127/135 25/128/136
f 28/45/137 26/46/138 39/47/139 31/48/140
f 32/129/141 40/130/142 17/131/143 20/132/144
f 20/77/145 19/78/146 41/79/147 42/80/148
f 29/93/149 30/94/150 44/95/151 43/96/152
f 21/97/153 22/101/154 45/102/155 46/98/156
f 31/87/157 32/83/158 48/84/159 47/88/160
f 23/103/161 24/99/162 49/100/163 50/104/164
f 35/81/165 36/85/166 52/86/167 51/82/168
f 27/89/169 28/91/170 53/92/171 54/90/172
f 33/105/173 34/107/174 56/108/175 55/106/176
f 32/83/177 20/77/178 42/80/179 48/84/180
f 30/94/181 21/97/182 46/98/183 44/95/184
f 34/107/185 23/103/186 50/104/187 56/108/188
f 36/85/189 27/89/190 54/90/191 52/86/192
f 19/78/193 35/81/194 51/82/195 41/79/196
f 24/99/197 29/93/198 43/96/199 49/100/200
f 28/91/201 31/87/202 47/88/203 53/92/204
f 22/101/205 33/105/206 55/106/207 45/102/208
